<svg xmlns="http://www.w3.org/2000/svg" viewBox="0 0 92 92" role="img" aria-labelledby="title desc">
  <title id="title">Reklamation8D Icon</title>
  <desc id="desc">Icon für Reklamation8D Qualitätsmanagement.</desc>

  <defs>
    <linearGradient id="cyanBlue" x1="0" y1="0" x2="1" y2="1">
      <stop offset="0%" stop-color="#22D3EE"/>
      <stop offset="55%" stop-color="#0EA5E9"/>
      <stop offset="100%" stop-color="#2563EB"/>
    </linearGradient>
    <linearGradient id="shield" x1="0" y1="16" x2="0" y2="78" gradientUnits="userSpaceOnUse">
      <stop offset="0%" stop-color="#0EA5E9"/>
      <stop offset="100%" stop-color="#0F172A"/>
    </linearGradient>
  </defs>

  <circle cx="46" cy="46" r="35" fill="none" stroke="#123456" stroke-width="8" opacity=".95"/>
  <path d="M46 11 A35 35 0 0 1 81 46" fill="none" stroke="url(#cyanBlue)" stroke-width="8" stroke-linecap="round"/>
  <path d="M81 46 A35 35 0 0 1 46 81" fill="none" stroke="#0EA5E9" stroke-width="8" stroke-linecap="round"/>
  <path d="M46 81 A35 35 0 0 1 11 46" fill="none" stroke="#22D3EE" stroke-width="8" stroke-linecap="round"/>
  <path d="M11 46 A35 35 0 0 1 46 11" fill="none" stroke="#2563EB" stroke-width="8" stroke-linecap="round"/>
  <path d="M77 27 L89 29 L81 40 Z" fill="#22D3EE"/>

  <path d="M46 25 L72 35 V56 C72 73 62 84 46 92 C30 84 20 73 20 56 V35 Z"
        fill="url(#shield)" stroke="#FFFFFF" stroke-width="4" stroke-linejoin="round"/>
  <path d="M31 56 L42 67 L64 42"
        fill="none" stroke="#2DD4BF" stroke-width="7" stroke-linecap="round" stroke-linejoin="round"/>
</svg>
